HIERARCHY
ROOT Hips
{
  OFFSET 54.4088 84.4705 4.7985
  CHANNELS 6 Xposition Yposition Zposition Zrotation Xrotation Yrotation
  JOINT spine
  {
    OFFSET 0 5.95438 0.342407
    CHANNELS 3 Zrotation Xrotation Yrotation
    JOINT spine1
    {
      OFFSET 0 8.85602 0
      CHANNELS 3 Zrotation Xrotation Yrotation
      JOINT spine2
      {
        OFFSET 0 8.48567 0
        CHANNELS 3 Zrotation Xrotation Yrotation
        JOINT Neck
        {
          OFFSET 0 21.7863 1.0387
          CHANNELS 3 Zrotation Xrotation Yrotation
          JOINT Head
          {
            OFFSET 0 6.5822 0
            CHANNELS 3 Zrotation Xrotation Yrotation
            End Site
            {
              OFFSET 0 15.9326 -5.25436
            }
          }
        }
        JOINT RightShoulder
        {
          OFFSET -3.57307 9.16386 -0.497525
          CHANNELS 3 Zrotation Xrotation Yrotation
          JOINT RightArm
          {
            OFFSET 0 12.0192 0
            CHANNELS 3 Zrotation Xrotation Yrotation
            JOINT RightArmRoll
            {
              OFFSET 0 6.06755 0
              CHANNELS 3 Zrotation Xrotation Yrotation
              JOINT RightForeArm
              {
                OFFSET 0 17.6726 0
                CHANNELS 3 Zrotation Xrotation Yrotation
                JOINT RightForeArmRoll
                {
                  OFFSET 0 6.80872 0
                  CHANNELS 3 Zrotation Xrotation Yrotation
                  JOINT RightHand
                  {
                    OFFSET 0 13.6636 0
                    CHANNELS 3 Zrotation Xrotation Yrotation
                    End Site
                    {
                      OFFSET 0 0 0
                    }
                  }
                }
              }
            }
          }
        }
        JOINT LeftShoulder
        {
          OFFSET 3.57307 9.16386 -0.497525
          CHANNELS 3 Zrotation Xrotation Yrotation
          JOINT LeftArm
          {
            OFFSET 0 12.0192 0
            CHANNELS 3 Zrotation Xrotation Yrotation
            JOINT LeftArmRoll
            {
              OFFSET 0 6.06755 0
              CHANNELS 3 Zrotation Xrotation Yrotation
              JOINT LeftForeArm
              {
                OFFSET 0 17.6726 0
                CHANNELS 3 Zrotation Xrotation Yrotation
                JOINT LeftForeArmRoll
                {
                  OFFSET 0 6.80872 0
                  CHANNELS 3 Zrotation Xrotation Yrotation
                  JOINT LeftHand
                  {
                    OFFSET 0 13.6636 0
                    CHANNELS 3 Zrotation Xrotation Yrotation
                    End Site
                    {
                      OFFSET 0 0 0
                    }
                  }
                }
              }
            }
          }
        }
      }
    }
  }
  JOINT RightUpLeg
  {
    OFFSET -5.27774 -0.967797 -0.811858
    CHANNELS 3 Zrotation Xrotation Yrotation
    JOINT RightUpLegRoll
    {
      OFFSET 0 16.0214 0
      CHANNELS 3 Zrotation Xrotation Yrotation
      JOINT RightLeg
      {
        OFFSET 0 -19.8401 0
        CHANNELS 3 Zrotation Xrotation Yrotation
        JOINT RightLegRoll
        {
          OFFSET 0 19.905 0
          CHANNELS 3 Zrotation Xrotation Yrotation
          JOINT RightFoot
          {
            OFFSET 0 16.5675 0
            CHANNELS 3 Zrotation Xrotation Yrotation
            JOINT RightToeBase
            {
              OFFSET 0 13.8496 0
              CHANNELS 3 Zrotation Xrotation Yrotation
              End Site
              {
                OFFSET 0.00587034 6.70728 -0.773117
              }
            }
          }
        }
      }
    }
  }
  JOINT LeftUpLeg
  {
    OFFSET 5.27774 -0.967797 -0.811858
    CHANNELS 3 Zrotation Xrotation Yrotation
    JOINT LeftUpLegRoll
    {
      OFFSET 0 16.0215 0
      CHANNELS 3 Zrotation Xrotation Yrotation
      JOINT LeftLeg
      {
        OFFSET 0 19.84 0
        CHANNELS 3 Zrotation Xrotation Yrotation
        JOINT LeftLegRoll
        {
          OFFSET 0 20.089 0
          CHANNELS 3 Zrotation Xrotation Yrotation
          JOINT LeftFoot
          {
            OFFSET 0 16.3835 0
            CHANNELS 3 Zrotation Xrotation Yrotation
            JOINT LeftToeBase
            {
              OFFSET 0 13.8496 0
              CHANNELS 3 Zrotation Xrotation Yrotation
              End Site
              {
                OFFSET -0.0263083 6.70728 -0.773116
              }
            }
          }
        }
      }
    }
  }
}
MOTION
Frames: 10
Frame Time: 0.00208333
54.2813 84.415 3.11757 1.00964 -9.46196 -1.41436 0.0618216 -0.28969 0.0642071 0.102338 3.43719 0.109016 0.101185 5.08227 0.11176 -5.90203 10.2131 0.827486 6.32161 8.00107 -0.971944 74.2302 0.290037 -1.58099 104.071 18.0064 -5.42211 -1.5572e-007 -3.73905e-007 4.88896e-007 -3.63804 -0.0270213 -1.99255 -5.17349e-006 2.44914e-006 -3.01161 8.0301 -4.95138 0.697613 -72.687 -3.87784 3.35979 -109.823 19.1495 10.1566 5.56597e-015 -6.36111e-015 3.18055e-015 3.6405 -0.027138 1.99238 4.09506e-006 6.20394e-006 3.0116 -8.03009 -4.95139 -0.69763 176.771 -2.3728 5.45115 180 7.01527e-015 178.839 175.917 10.4077 -179.95 -5.44318e-007 -6.69345e-007 0.148003 -19.5216 69.0375 20.4351 8.13649 25.2327 -3.48773 -179.679 -3.83652 0.00260138 4.54188e-006 -4.6773e-006 -1.1806 -2.08547 -9.11053 0.0932394 -4.13338e-007 -2.09623e-006 -0.149862 19.3826 68.9186 -20.3102 -8.13649 25.2327 3.48774 
54.271 84.4165 3.13124 1.00949 -9.46532 -1.41383 0.061402 -0.28848 0.0642038 0.103333 3.43863 0.108953 0.10218 5.0837 0.111669 -5.9013 10.2074 0.823869 6.33023 8.01349 -0.97567 74.2132 0.278739 -1.58422 104.073 17.9813 -5.41564 -1.5572e-007 -3.73905e-007 4.88896e-007 -3.63804 -0.0270213 -1.99255 -5.17349e-006 2.44914e-006 -3.01161 8.0301 -4.95138 0.697613 -72.6779 -3.88164 3.36098 -109.825 19.1135 10.1464 -2.0276e-014 -6.36111e-015 -4.77083e-015 3.6405 -0.027138 1.99238 4.09506e-006 6.20394e-006 3.0116 -8.03009 -4.95139 -0.69763 176.77 -2.36891 5.45072 180 7.01527e-015 178.839 175.92 10.4223 -179.949 -5.44318e-007 -6.69345e-007 0.148003 -19.5259 69.0421 20.4397 8.13649 25.2327 -3.48773 -179.682 -3.82147 0.00521153 4.54188e-006 -4.6773e-006 -1.1806 -2.08289 -9.13202 0.0928204 -4.13338e-007 -2.09623e-006 -0.149862 19.3847 68.9209 -20.3124 -8.13649 25.2327 3.48774 
54.2734 84.4136 3.12668 1.00965 -9.46849 -1.41324 0.0609108 -0.287278 0.0642002 0.10426 3.44001 0.108895 0.103108 5.08508 0.111585 -5.90115 10.201 0.820443 6.33945 8.0267 -0.979392 74.1949 0.267123 -1.58745 104.076 17.9558 -5.41045 -1.5572e-007 -3.73905e-007 4.88896e-007 -3.63804 -0.0270213 -1.99255 -5.17349e-006 2.44914e-006 -3.01161 8.0301 -4.95138 0.697613 -72.6683 -3.88606 3.36241 -109.828 19.0775 10.1371 -9.93923e-015 -6.36111e-015 -2.38542e-015 3.6405 -0.027138 1.99238 4.09506e-006 6.20394e-006 3.0116 -8.03009 -4.95139 -0.69763 176.768 -2.36438 5.45052 180 7.01527e-015 178.839 175.923 10.4377 -179.949 -5.44318e-007 -6.69345e-007 0.148003 -19.5304 69.047 20.4445 8.13649 25.2327 -3.48773 -179.685 -3.80563 0.00822145 4.54188e-006 -4.6773e-006 -1.1806 -2.08014 -9.15396 0.0923824 -4.13338e-007 -2.09623e-006 -0.149862 19.3868 68.9232 -20.3147 -8.13649 25.2327 3.48774 
54.2778 84.4133 3.1236 1.01001 -9.47152 -1.41262 0.0603697 -0.286081 0.0641964 0.10514 3.44135 0.10884 0.103987 5.08642 0.111505 -5.90139 10.1941 0.81715 6.3491 8.04044 -0.983112 74.1757 0.255284 -1.59069 104.08 17.9299 -5.40617 -1.5572e-007 -3.73905e-007 4.88896e-007 -3.63804 -0.0270213 -1.99255 -5.17349e-006 2.44914e-006 -3.01161 8.0301 -4.95138 0.697613 -72.6584 -3.8909 3.36403 -109.832 19.0415 10.1283 1.03368e-014 -9.54166e-015 3.97569e-015 3.6405 -0.027138 1.99238 4.09506e-006 6.20394e-006 3.0116 -8.03009 -4.95139 -0.69763 176.766 -2.3594 5.45049 180 7.01527e-015 178.839 175.925 10.4537 -179.948 -5.44318e-007 -6.69345e-007 0.148003 -19.5351 69.0521 20.4496 8.13649 25.2327 -3.48773 -179.689 -3.78923 0.0115112 4.54188e-006 -4.6773e-006 -1.1806 -2.07725 -9.17622 0.0919311 -4.13338e-007 -2.09623e-006 -0.149862 19.3889 68.9256 -20.3169 -8.13649 25.2327 3.48774 
54.2984 84.4093 3.10706 1.01049 -9.47447 -1.41198 0.0597999 -0.284886 0.0641925 0.105993 3.44268 0.108787 0.10484 5.08775 0.111427 -5.90186 10.187 0.813934 6.35899 8.0545 -0.98683 74.1559 0.243318 -1.59392 104.085 17.9039 -5.40241 -1.5572e-007 -3.73905e-007 4.88896e-007 -3.63804 -0.0270213 -1.99255 -5.17349e-006 2.44914e-006 -3.01161 8.0301 -4.95138 0.697613 -72.6483 -3.89599 3.36574 -109.836 19.0054 10.1199 4.41391e-032 -3.18055e-015 7.95139e-016 3.6405 -0.027138 1.99238 4.09506e-006 6.20394e-006 3.0116 -8.03009 -4.95139 -0.69763 176.764 -2.35417 5.45055 180 7.01527e-015 178.839 175.928 10.47 -179.948 -5.44318e-007 -6.69345e-007 0.148003 -19.5399 69.0572 20.4547 8.13649 25.2327 -3.48773 -179.693 -3.77251 0.0149607 4.54188e-006 -4.6773e-006 -1.1806 -2.0743 -9.19866 0.0914721 -4.13338e-007 -2.09623e-006 -0.149862 19.391 68.9279 -20.3192 -8.13649 25.2327 3.48774 
54.3055 84.3982 3.09791 1.011 -9.47741 -1.41134 0.059223 -0.283692 0.0641886 0.106839 3.444 0.108734 0.105685 5.08907 0.11135 -5.90238 10.1798 0.810736 6.36894 8.06863 -0.990549 74.1361 0.23132 -1.59715 104.09 17.8778 -5.39878 -1.5572e-007 -3.73905e-007 4.88896e-007 -3.63804 -0.0270213 -1.99255 -5.17349e-006 2.44914e-006 -3.01161 8.0301 -4.95138 0.697613 -72.6381 -3.90114 3.36749 -109.84 18.9694 10.1115 7.95139e-016 -6.36111e-015 2.38542e-015 3.6405 -0.027138 1.99238 4.09506e-006 6.20394e-006 3.0116 -8.03009 -4.95139 -0.69763 176.762 -2.34887 5.45064 180 7.01527e-015 178.839 175.931 10.4864 -179.947 -5.44318e-007 -6.69345e-007 0.148003 -19.5447 69.0624 20.4598 8.13649 25.2327 -3.48773 -179.698 -3.75572 0.01845 4.54188e-006 -4.6773e-006 -1.1806 -2.07132 -9.22114 0.0910112 -4.13338e-007 -2.09623e-006 -0.149862 19.3932 68.9302 -20.3215 -8.13649 25.2327 3.48774 
54.2938 84.4052 3.11596 1.01145 -9.48038 -1.41071 0.0586604 -0.282497 0.0641847 0.107698 3.44533 0.10868 0.106544 5.0904 0.111272 -5.9028 10.1728 0.807501 6.37877 8.08261 -0.994268 74.1165 0.219385 -1.60039 104.094 17.8518 -5.3949 -1.5572e-007 -3.73905e-007 4.88896e-007 -3.63804 -0.0270213 -1.99255 -5.17349e-006 2.44914e-006 -3.01161 8.0301 -4.95138 0.697613 -72.628 -3.90616 3.36918 -109.844 18.9333 10.103 -2.50469e-014 -3.18055e-015 -7.15625e-015 3.6405 -0.027138 1.99238 4.09506e-006 6.20394e-006 3.0116 -8.03009 -4.95139 -0.69763 176.759 -2.3437 5.45068 180 7.01527e-015 178.839 175.933 10.5027 -179.947 -5.44318e-007 -6.69345e-007 0.148003 -19.5494 69.0675 20.4649 8.13649 25.2327 -3.48773 -179.702 -3.73908 0.0218593 4.54188e-006 -4.6773e-006 -1.1806 -2.06838 -9.24354 0.090554 -4.13338e-007 -2.09623e-006 -0.149862 19.3953 68.9325 -20.3238 -8.13649 25.2327 3.48774 
54.2967 84.4113 3.11769 1.01175 -9.48345 -1.4101 0.0581336 -0.281298 0.064181 0.108591 3.44669 0.108624 0.107437 5.09175 0.11119 -5.90293 10.1661 0.804171 6.3883 8.0962 -0.99799 74.0975 0.20761 -1.60362 104.098 17.8261 -5.39037 -1.5572e-007 -3.73905e-007 4.88896e-007 -3.63804 -0.0270213 -1.99255 -5.17349e-006 2.44914e-006 -3.01161 8.0301 -4.95138 0.697613 -72.6181 -3.91088 3.37074 -109.848 18.8973 10.0941 1.59028e-015 -6.36111e-015 2.38542e-015 3.6405 -0.027138 1.99238 4.09506e-006 6.20394e-006 3.0116 -8.03009 -4.95139 -0.69763 176.757 -2.33885 5.4506 180 7.01527e-015 178.839 175.936 10.5185 -179.946 -5.44318e-007 -6.69345e-007 0.148003 -19.5541 69.0725 20.4699 8.13649 25.2327 -3.48773 -179.706 -3.72284 0.0250685 4.54188e-006 -4.6773e-006 -1.1806 -2.06553 -9.2657 0.0901063 -4.13338e-007 -2.09623e-006 -0.149862 19.3974 68.9348 -20.326 -8.13649 25.2327 3.48774 
54.3023 84.4066 3.1057 1.01181 -9.48667 -1.40953 0.0576639 -0.280094 0.0641775 0.109539 3.44808 0.108564 0.108385 5.09314 0.111104 -5.90261 10.1598 0.800689 6.39736 8.10916 -1.00172 74.0796 0.19609 -1.60685 104.101 17.8007 -5.38482 -1.5572e-007 -3.73905e-007 4.88896e-007 -3.63804 -0.0270213 -1.99255 -5.17349e-006 2.44914e-006 -3.01161 8.0301 -4.95138 0.697613 -72.6087 -3.91512 3.3721 -109.851 18.8613 10.0845 -1.19271e-015 -6.36111e-015 1.59028e-015 3.6405 -0.027138 1.99238 4.09506e-006 6.20394e-006 3.0116 -8.03009 -4.95139 -0.69763 176.756 -2.33451 5.45033 180 7.01527e-015 178.839 175.939 10.5336 -179.946 -5.44318e-007 -6.69345e-007 0.148003 -19.5585 69.0773 20.4747 8.13649 25.2327 -3.48773 -179.709 -3.70723 0.0279578 4.54188e-006 -4.6773e-006 -1.1806 -2.06284 -9.28751 0.0896738 -4.13338e-007 -2.09623e-006 -0.149862 19.3995 68.9371 -20.3283 -8.13649 25.2327 3.48774 
54.2926 84.4137 3.12045 1.01155 -9.4901 -1.40902 0.0572729 -0.278881 0.0641744 0.110561 3.44953 0.1085 0.109407 5.09459 0.111011 -5.90167 10.1543 0.796996 6.40575 8.12127 -1.00545 74.0631 0.18492 -1.61008 104.102 17.7758 -5.37784 -1.5572e-007 -3.73905e-007 4.88896e-007 -3.63804 -0.0270213 -1.99255 -5.17349e-006 2.44914e-006 -3.01161 8.0301 -4.95138 0.697613 -72.5998 -3.91867 3.37319 -109.853 18.8253 10.0741 5.96354e-015 -6.36111e-015 3.18055e-015 3.6405 -0.027138 1.99238 4.09506e-006 6.20394e-006 3.0116 -8.03009 -4.95139 -0.69763 176.755 -2.33087 5.4498 180 7.01527e-015 178.839 175.942 10.5479 -179.945 -5.44318e-007 -6.69345e-007 0.148003 -19.5628 69.0819 20.4792 8.13649 25.2327 -3.48773 -179.712 -3.6925 0.0304073 4.54188e-006 -4.6773e-006 -1.1806 -2.06034 -9.30882 0.0892622 -4.13338e-007 -2.09623e-006 -0.149862 19.4016 68.9394 -20.3305 -8.13649 25.2327 3.48774 
